<svg width="207" height="26" viewBox="0 0 207 26" fill="none" xmlns="http://www.w3.org/2000/svg">
<path d="M5.95668 15.7321C5.89362 15.9214 5.89362 16.1415 5.89362 16.3C5.89362 17.2774 6.24121 17.9716 6.77644 18.3179C7.40702 18.6965 8.25753 18.7904 10.5891 18.7904C14.0558 18.7904 15.0647 18.4441 15.0647 17.3713C15.0647 17.2759 15.0647 17.1512 15.0324 17.025H20.6738C20.6738 18.8551 20.3585 19.9587 19.3819 20.873C18.8144 21.504 17.8377 21.9766 16.7981 22.1659C15.6953 22.4183 12.2287 22.6384 10.0862 22.6384C5.48452 22.6384 3.84654 22.3537 2.17627 20.9976C0.504465 19.7063 0 18.0978 0 14.1867C0 10.8759 0.282992 9.42446 1.1981 8.25775C2.45927 6.68162 4.50635 6.08134 8.91887 6.08134C13.9927 6.08134 15.8199 6.23834 17.4594 6.93251C19.7603 7.78368 20.6738 9.73845 20.6738 13.5864V15.7305H5.95668V15.7321ZM14.874 12.2319C14.811 10.308 14.1173 9.92932 10.1785 9.92932C6.8072 9.92932 5.89209 10.3711 5.89209 11.821C5.89209 11.9149 5.89209 12.0734 5.95514 12.2304H14.874V12.2319Z" fill="black"/>
<path d="M22.4687 10.6235V6.33531H25.4632V2.55044H31.4829V6.33531H40.9047V10.6235H31.4829V16.8049C31.4829 17.8454 32.1442 18.224 33.8776 18.224C35.8308 18.224 36.4307 17.6884 36.4307 15.9845C36.4307 15.8583 36.4307 15.4796 36.3984 15.2272H41.6291C41.6599 15.6366 41.6599 16.1738 41.6599 16.3631C41.6599 20.9668 39.4544 22.6384 33.3716 22.6384C27.6994 22.6384 25.4616 20.9976 25.4616 16.8664V10.622H22.4671L22.4687 10.6235Z" fill="black"/>
<path d="M58.867 11.0021C58.6148 10.151 57.795 9.89853 55.2435 9.89853C52.692 9.89853 51.1155 9.99242 50.7049 10.151C50.3896 10.2772 50.1696 10.6235 50.1696 11.0652C50.1696 11.4747 50.3896 11.7271 50.8002 11.8533C51.3047 11.9795 53.0057 12.0734 55.1804 12.0734H56.4416C61.1048 12.1057 62.3967 12.2935 63.6271 12.9246C65.2974 13.745 65.8649 14.9117 65.8649 17.3082C65.8649 21.4086 64.0378 22.6384 57.8289 22.6384H51.3677C46.2 22.6384 43.9315 21.1562 43.9315 17.813V17.4036H50.1712C50.2019 18.5703 51.1801 18.8535 55.1189 18.8535C58.8378 18.8535 59.6253 18.6011 59.6253 17.5606C59.6253 16.614 59.0577 16.3939 56.9461 16.3616L51.7153 16.2677C48.281 16.2354 47.0829 16.0476 45.9801 15.3842C44.6251 14.5961 44.0253 13.177 44.0253 11.0006C44.0253 9.0135 44.5605 7.84679 45.6956 7.12183C47.0198 6.33377 48.7531 6.08134 53.2272 6.08134C63.3119 6.08134 64.8237 6.71241 64.9498 11.0006H58.867V11.0021Z" fill="black"/>
<path d="M67.4691 6.33377H70.9357V2.48579H73.5826V6.33377H84.4225V8.41475H73.5826V16.6463C73.5826 19.6739 74.5593 20.4312 78.3089 20.4312C80.7359 20.4312 81.8694 20.0526 82.3431 19.0752C82.5323 18.6658 82.6584 17.813 82.6584 16.5201V15.0056H84.9269V16.4878C84.9269 19.0429 84.6439 20.3035 83.7288 21.2177C82.7199 22.2582 81.0819 22.6692 78.2766 22.6692C74.9991 22.6692 73.172 22.1336 71.9416 20.7452C71.2479 19.9571 70.9327 18.7904 70.9327 16.8972V8.41321H67.466V6.33223L67.4691 6.33377Z" fill="black"/>
<path d="M91.0097 6.33377V16.6463C91.0097 18.0655 91.4188 18.949 92.397 19.6108C93.3106 20.2419 94.4764 20.462 98.4152 20.462C102.039 20.462 103.363 20.0834 104.529 18.7904C105.253 17.97 105.505 17.1512 105.505 15.5427V6.33377H108.152V22.386H105.632V19.6108C104.403 22.1028 102.795 22.6707 97.5324 22.6707C93.1522 22.6707 91.1666 22.229 89.7486 20.7791C88.8658 19.9279 88.3628 18.4457 88.3628 16.6479V6.33377H91.0097Z" fill="black"/>
<path d="M115.527 6.33377V8.66718C116.567 6.74319 118.237 6.04902 120.853 6.04902H123.437C126.021 6.04902 127.911 6.68008 128.794 7.84679C129.677 8.88728 129.834 9.73846 129.834 13.6188H127.407V12.2304C127.407 9.0135 126.272 8.25622 122.333 8.25622H120.284C117.322 8.25622 115.652 9.54913 115.652 12.4828V22.386H113.005V6.33377H115.527Z" fill="black"/>
<path d="M138.809 0H137.557V26H138.809V0Z" fill="black"/>
<path d="M189.074 9.96318V14.1375H186.157V9.96318L182.079 2.9337H185.388L187.615 7.48508L189.842 2.9337H193.15L189.074 9.96318Z" fill="black"/>
<path d="M196.757 2.9337H193.841V14.1375H196.757V2.9337Z" fill="black"/>
<path d="M198.779 2.9337H201.695V11.627H206.917V14.1375H198.779V2.9337Z" fill="black"/>
<path d="M184.162 19.4215C184.162 20.4004 183.37 21.1931 182.392 21.1931C181.414 21.1931 180.621 20.4004 180.621 19.4215C180.621 18.4426 181.414 17.6499 182.392 17.6499C183.37 17.6499 184.162 18.4426 184.162 19.4215Z" fill="black"/>
<path d="M152.394 10.4757H153.609C155.094 10.4757 155.337 10.4465 155.877 10.1171C156.443 9.78925 156.821 9.07352 156.821 8.38859C156.821 7.04641 155.713 6.1229 154.094 6.1229C152.285 6.1229 151.232 7.16647 150.963 9.16434H146.535C146.832 6.95868 147.344 5.76581 148.479 4.60218C149.911 3.20151 151.827 2.48579 154.255 2.48579C158.574 2.48579 161.41 4.66221 161.41 7.97147C161.41 9.67073 160.681 11.0129 159.331 11.7871C161.193 12.7414 162.085 14.082 162.085 16.0214C162.085 17.9608 161.141 19.8971 159.602 21.0592C158.171 22.1628 156.389 22.6692 154.068 22.6692C149.1 22.6692 146.347 20.1049 146.347 15.4843H150.775C150.801 17.6006 152.125 18.8535 154.285 18.8535C156.201 18.8535 157.498 17.8392 157.498 16.2892C157.498 15.455 157.093 14.7685 156.418 14.4407C155.797 14.1421 155.257 14.0528 153.691 14.0528H152.394V10.4757Z" fill="black"/>
<path d="M178.444 6.74935H169.372L168.886 9.90931C170.318 8.95501 171.586 8.56713 173.233 8.56713C177.066 8.56713 179.766 11.3992 179.766 15.4242C179.766 19.8063 176.661 22.6692 171.91 22.6692C167.159 22.6692 164.325 20.3435 164.136 16.497H168.671C168.942 17.9885 170.075 18.8228 171.856 18.8228C173.934 18.8228 175.392 17.4821 175.392 15.5443C175.392 13.6064 174.016 12.295 172.018 12.295C170.534 12.295 169.48 12.8615 168.671 14.1436H164.406L166.241 2.9337H178.444V6.74935Z" fill="black"/>
</svg>
