<svg width="1309" height="160" viewBox="0 0 1309 160" fill="none" xmlns="http://www.w3.org/2000/svg">
<path d="M1156 116V103H1163V110.5H1173C1174.66 110.5 1176 111.843 1176 113.5V127C1176 128.657 1174.66 130 1173 130H1156V129.5V124H1168.5C1169.05 124 1169.5 123.552 1169.5 123V117C1169.5 116.448 1169.05 116 1168.5 116H1156Z" fill="white" stroke="white"/>
<path d="M0.0477714 38.6515H10.3139V71.4965C10.1658 75.8706 10.5034 80.2476 11.3204 84.5473C11.8834 87.0192 13.1956 89.2571 15.078 90.9553C17.3343 92.6924 19.9851 93.8448 22.7944 94.3102C27.4201 95.048 32.1008 95.3847 36.7845 95.3167C42.8758 95.4841 48.9637 94.8753 54.9013 93.505C58.6918 92.6263 62.1013 90.5571 64.6306 87.6003C66.0768 85.8099 67.0566 83.689 67.4823 81.4272C68.0946 77.883 68.3531 74.2867 68.254 70.6913V38.6515H78.5201V103.536H68.254V93.807H67.6501C65.3092 97.7663 61.6151 100.745 57.2497 102.194C50.1651 103.942 42.8666 104.665 35.5767 104.342C29.2924 104.506 23.0078 104.023 16.8225 102.899C12.9421 102.214 9.29634 100.565 6.22089 98.1013C3.78055 95.9175 2.07057 93.0363 1.32265 89.8481C0.275963 84.8082 -0.152158 79.6595 0.0477714 74.516V38.618V38.6515ZM152.698 80.0517H163.166C163.166 87.9358 161.22 93.6728 157.798 97.2961C155.06 100.078 151.556 101.981 147.733 102.765C141.489 103.962 135.133 104.479 128.777 104.308C120.462 104.464 112.145 104.06 103.884 103.1C99.4554 102.62 95.2027 101.103 91.4703 98.6716C85.0958 93.8741 81.9757 84.7486 81.9757 71.2617C81.5203 63.8746 82.9277 56.4915 86.0688 49.79C88.6013 45.2808 92.7496 41.8999 97.6769 40.329C105.812 38.3096 114.197 37.4735 122.571 37.8463C130.321 37.6404 138.073 38.1796 145.72 39.4567C150.037 40.1598 154.052 42.1203 157.261 45.093C159.123 46.973 160.505 49.2749 161.287 51.8029C162.22 55.0802 162.738 58.4615 162.83 61.8678H152.094C152.094 55.7618 149.981 51.8029 146.122 49.79C142.264 47.777 134.38 46.8712 122.638 46.8712C110.895 46.8712 103.347 48.0454 99.7234 50.4274C97.1831 52.2441 95.356 54.8899 94.5568 57.909C93.3544 62.5172 92.8122 67.2727 92.9464 72.0333C92.7759 76.5876 93.4352 81.1349 94.8923 85.4531C95.9164 88.4063 97.9792 90.8865 100.696 92.4314C104.521 94.3773 113.11 95.3838 126.462 95.3838C136.997 95.3838 143.908 94.3773 147.196 92.465C150.484 90.5527 152.228 86.4261 152.497 80.1188L152.698 80.0517ZM166.118 38.6515H176.518V71.4965C176.37 75.8706 176.708 80.2476 177.525 84.5473C178.057 87.0158 179.347 89.2562 181.215 90.9553C183.487 92.6659 186.131 93.8154 188.932 94.3102C193.556 95.0536 198.239 95.3792 202.922 95.2832C209.012 95.4604 215.099 94.8629 221.039 93.505C224.825 92.6176 228.232 90.5499 230.768 87.6003C232.214 85.8099 233.194 83.689 233.62 81.4272C234.231 77.8828 234.489 74.2867 234.391 70.6913V38.618H244.657V103.503H234.391V93.7734H233.787C231.446 97.7328 227.752 100.712 223.387 102.161C216.302 103.908 209.004 104.631 201.714 104.308C195.463 104.466 189.213 103.982 183.061 102.865C179.18 102.181 175.534 100.531 172.459 98.0678C170.019 95.884 168.309 93.0028 167.561 89.8146C166.47 84.7915 165.996 79.6539 166.152 74.516V38.618L166.118 38.6515ZM251.2 38.6515H321.452V47.7099L263.646 94.6793H321.788V103.436H248.985V93.3708L306.02 47.3409H251.334V38.618L251.2 38.6515Z" fill="#FDC70F"/>
<path d="M334 58.0765H323.331V55.2583C323.054 52.4459 323.636 49.6154 325.002 47.1412C326.368 44.6671 328.453 42.6659 330.981 41.4024C336.08 38.9197 345.653 37.6784 359.699 37.6784C367.668 37.4565 375.642 37.9619 383.519 39.1881C387.784 39.9149 391.733 41.9013 394.859 44.8915C397.075 47.0965 398.612 49.891 399.287 52.9434C400.152 58.3217 400.501 63.7703 400.327 69.2149V103.469H390.263L390.464 95.8868H389.927C387.718 99.1069 384.475 101.475 380.735 102.597C374.106 103.881 367.352 104.399 360.605 104.14C352.768 104.271 344.93 104.002 337.12 103.335C333.53 103.114 330.06 101.958 327.055 99.9799C324.731 98.6905 322.866 96.7086 321.721 94.31C320.704 91.2289 320.25 87.9902 320.379 84.7484C320.176 80.7991 320.864 76.8547 322.392 73.2073C323.82 70.4453 326.205 68.2983 329.102 67.1684C332.569 65.6475 340.654 64.8982 353.358 64.9206C362.077 64.6621 370.802 65.0659 379.46 66.1284C383.329 66.6487 386.837 68.674 389.223 71.7647H390.095V64.7864C390.482 60.4517 389.394 56.1133 387.008 52.4737C384.849 50.0498 381.924 48.4394 378.722 47.911C372.701 46.9311 366.601 46.5267 360.504 46.7032C349.433 46.7032 342.253 47.3742 339.032 48.6491C337.404 49.3477 336.045 50.5562 335.162 52.0929C334.279 53.6296 333.918 55.4114 334.134 57.1707V58.0429L334 58.0765ZM360.236 73.8783L342.522 74.2809C340.044 74.3823 337.608 74.9515 335.342 75.9584C333.932 76.9238 332.812 78.2556 332.102 79.8104C331.393 81.3652 331.121 83.0841 331.316 84.7819C331.142 86.5367 331.509 88.3027 332.366 89.8436C333.223 91.3845 334.531 92.6267 336.114 93.4042C338.686 94.6567 347.431 95.2717 362.349 95.2494C373.253 95.2494 380.466 94.5784 383.955 93.1358C385.646 92.4787 387.075 91.2873 388.026 89.7429C388.977 88.1986 389.397 86.3858 389.223 84.5806C389.342 82.7115 388.828 80.8567 387.762 79.3163C386.697 77.7759 385.143 76.6401 383.351 76.0926C375.784 74.2338 367.984 73.499 360.202 73.9119L360.236 73.8783ZM406.199 10.1342H431.126V46.3677H432.233C434.365 42.5335 437.771 39.5662 441.862 37.9803C447.8 36.2144 453.991 35.4546 460.18 35.7325C466.808 35.6046 473.434 36.0875 479.974 37.1751C484.228 37.8201 488.273 39.4516 491.784 41.9392C495.05 44.3214 497.415 47.7385 498.493 51.635C499.902 57.8615 500.5 64.2442 500.272 70.624L499.735 83.4399C499.421 86.2485 498.768 89.0086 497.789 91.6596C496.843 94.203 495.339 96.5024 493.389 98.3891C491.438 100.276 489.09 101.702 486.516 102.563C478.178 105.058 469.478 106.124 460.784 105.717C449.142 105.717 441.09 104.375 436.695 101.691C434.286 100.04 432.325 97.8145 430.992 95.2158H429.65V103.939H406.165V10L406.199 10.1342ZM453.336 54.386C444.747 54.386 439.01 55.1577 436.058 56.7345C434.208 57.7134 432.812 59.374 432.166 61.3643C431.367 64.5084 431.028 67.7517 431.16 70.9931C430.941 74.3986 431.373 77.8145 432.434 81.0579C432.915 82.0612 433.603 82.9509 434.453 83.6681C435.303 84.3853 436.296 84.9136 437.366 85.2181C442.713 86.7036 448.262 87.3265 453.805 87.0633C462.528 87.0633 468.4 86.1575 471.251 84.3122C472.841 83.229 473.966 81.5888 474.405 79.7159C475.1 76.6011 475.405 73.4116 475.311 70.2214C475.48 67.0098 475.071 63.7938 474.103 60.7269C473.732 59.7214 473.151 58.8065 472.399 58.0429C471.647 57.2793 470.741 56.6846 469.742 56.2984C464.488 54.6825 458.992 54.0012 453.504 54.2854L453.336 54.386ZM502.519 10.1006H527.447V28.8213H502.519V10.1006ZM502.519 37.3429H527.447V103.972H502.519V37.2758V37.3429ZM531.64 10.1006H556.534V104.039H531.64V10.1006ZM531.64 110.749H556.534V126.014H531.64V110.749ZM531.64 133.362H556.534V143.427H531.64V133.362ZM531.64 153.491H556.534V160H531.64V153.491ZM625.076 83.0374H649.903C649.804 88.9273 647.394 94.5425 643.193 98.6714C639.245 101.776 634.545 103.778 629.571 104.476C620.832 105.76 611.999 106.299 603.168 106.086C595.705 106.241 588.242 105.77 580.858 104.677C576.426 104.052 572.206 102.385 568.545 99.8121C565.315 97.3803 562.96 93.9664 561.835 90.0827C560.443 83.7644 559.935 77.2834 560.325 70.8253C560.25 66.0519 560.474 61.2785 560.996 56.5332C561.395 53.5363 562.279 50.6242 563.613 47.911C565.061 45.1883 567.114 42.8345 569.615 41.0312C572.117 39.228 574.999 38.0235 578.039 37.5106C587.227 35.8761 596.557 35.1792 605.886 35.4306C613.732 35.25 621.581 35.6424 629.37 36.6048C637.422 37.9468 642.991 40.9662 646.145 45.6632C649.299 50.3601 650.674 58.1436 650.674 69.1478V75.8578H585.152C585.062 78.3143 585.288 80.7723 585.823 83.1716C586.248 84.6557 587.157 85.9549 588.406 86.862C590.889 88.7072 596.458 89.6131 605.181 89.6131C609.363 89.707 613.547 89.4827 617.695 88.9421C619.766 88.7787 621.747 88.0216 623.398 86.7614C624.399 85.5573 624.987 84.0638 625.076 82.5006V83.0374ZM625.411 62.9076L624.908 57.5397C624.632 56.5523 624.126 55.6441 623.432 54.8893C621.285 52.675 615.514 51.5343 606.154 51.5343C597.767 51.5343 592.197 52.2724 589.379 53.7486C587.906 54.7524 586.726 56.1292 585.96 57.7384C585.194 59.3477 584.869 61.1315 585.018 62.9076H625.277H625.411Z" fill="#FDC70F"/>
<path d="M663.557 21.9773H688.451V37.2759H727.872V55.0571H688.484V74.4488C688.197 77.7665 688.573 81.1082 689.592 84.2788C690.833 86.5602 693.752 87.6338 698.415 87.6338C703.079 87.6338 706.199 86.5266 707.373 84.2788C707.812 83.4779 708.097 82.6016 708.212 81.6955C708.212 79.5148 708.212 77.334 708.212 75.1869H731.025C731.091 79.8203 730.709 84.4493 729.885 89.0093C729.182 91.9016 727.854 94.6044 725.993 96.927C723.367 100.209 719.756 102.561 715.693 103.637C709.318 105.115 702.775 105.747 696.234 105.516C690.277 105.693 684.317 105.243 678.453 104.174C674.9 103.467 671.62 101.768 668.992 99.2754C667.309 97.6754 665.993 95.7296 665.134 93.572C664.223 90.8212 663.737 87.9477 663.691 85.0504C663.691 83.7085 663.691 80.1522 663.691 74.3146V54.8558H650.54V37.2759H663.691V21.9773H663.557Z" fill="#FDC70F"/>
<path d="M1107.75 10.608H1117.41V22.712H1107.75V10.608ZM1107.75 38.08H1117.41V102H1107.75V38.08ZM1192.42 60.384C1192.33 56.848 1191.65 54.128 1190.38 52.224C1189.12 50.2293 1187.17 48.7787 1184.54 47.872C1181.91 46.8747 1178.46 46.2853 1174.2 46.104C1170.03 45.832 1164.95 45.696 1158.97 45.696C1148 45.696 1140.79 47.5547 1137.34 51.272C1136.17 52.5413 1135.12 54.6267 1134.22 57.528C1133.4 60.3387 1132.99 63.5573 1132.99 67.184C1132.99 72.624 1133.26 77.112 1133.81 80.648C1134.44 84.184 1135.76 86.9947 1137.75 89.08C1139.84 91.0747 1142.88 92.48 1146.86 93.296C1150.94 94.112 1156.38 94.52 1163.18 94.52C1168.53 94.52 1173.07 94.384 1176.78 94.112C1180.59 93.7493 1183.68 93.0693 1186.03 92.072C1188.48 90.984 1190.29 89.4427 1191.47 87.448C1192.65 85.4533 1193.29 82.7333 1193.38 79.288H1203.44C1203.35 84.0933 1202.62 88.0373 1201.26 91.12C1199.9 94.2027 1197.77 96.6507 1194.87 98.464C1192.06 100.187 1188.44 101.365 1183.99 102C1179.55 102.725 1174.25 103.088 1168.08 103.088C1161.28 103.088 1155.3 102.907 1150.13 102.544C1144.96 102.272 1140.29 101.139 1136.12 99.144C1130.95 96.696 1127.46 93.2053 1125.65 88.672C1123.84 84.1387 1122.93 78.1093 1122.93 70.584C1122.93 63.0587 1123.65 57.12 1125.1 52.768C1126.56 48.3253 1128.96 44.9707 1132.31 42.704C1135.67 40.3467 1140.06 38.8507 1145.5 38.216C1151.04 37.4907 1157.79 37.128 1165.77 37.128C1171.84 37.128 1177.15 37.4 1181.68 37.944C1186.3 38.3973 1190.11 39.44 1193.1 41.072C1196.19 42.704 1198.5 45.0613 1200.04 48.144C1201.58 51.2267 1202.35 55.3067 1202.35 60.384H1192.42ZM1207.28 10.608H1216.93V22.712H1207.28V10.608ZM1207.28 38.08H1216.93V102H1207.28V38.08ZM1234.15 51.272C1235.06 48.552 1236.23 46.2853 1237.69 44.472C1239.14 42.6587 1241.04 41.208 1243.4 40.12C1245.75 39.032 1248.61 38.2613 1251.97 37.808C1255.32 37.3547 1259.4 37.128 1264.21 37.128C1272.18 37.128 1278.89 37.7173 1284.33 38.896C1289.77 40.0747 1293.99 42.5227 1296.98 46.24C1299.07 48.7787 1300.29 51.4533 1300.65 54.264C1301.02 57.0747 1301.2 60.1573 1301.2 63.512V102H1291.54V64.464C1291.54 60.7467 1291.13 57.7093 1290.32 55.352C1289.5 52.904 1288.05 50.9547 1285.97 49.504C1283.88 48.0533 1281.07 47.056 1277.53 46.512C1274 45.968 1269.51 45.696 1264.07 45.696C1258.72 45.696 1254.14 46.0133 1250.33 46.648C1246.62 47.192 1243.53 48.2347 1241.09 49.776C1238.73 51.3173 1236.96 53.4027 1235.78 56.032C1234.69 58.6613 1234.15 61.9707 1234.15 65.96V102H1224.49V38.08H1234.15V51.272Z" fill="white"/>
<path d="M838 119.55V102H847.45V112.125H860.95C863.187 112.125 865 113.938 865 116.175V134.4C865 136.637 863.187 138.45 860.95 138.45H838V137.775V130.35H854.875C855.621 130.35 856.225 129.746 856.225 129V120.9C856.225 120.154 855.621 119.55 854.875 119.55H838Z" fill="white" stroke="white" stroke-width="1.35"/>
<path d="M929.73 102V103.77H931.5H948.463H950.234V102V57.5658C956.885 51.372 964.318 51.3743 973.46 51.377C973.655 51.3771 973.85 51.3772 974.046 51.3772C979.726 51.3772 983.671 52.9098 986.224 55.6781C988.803 58.4735 990.248 62.8351 990.248 69.0907V102V103.77H992.018H1008.98H1010.75V102V57.5901C1017.74 51.3711 1025.14 51.3738 1033.79 51.377C1033.99 51.3771 1034.18 51.3772 1034.38 51.3772C1040.13 51.3772 1044.13 52.8959 1046.71 55.6315C1049.31 58.3863 1050.77 62.6805 1050.77 68.8451V102V103.77H1052.54H1069.5H1071.27V102V69.6637C1071.27 58.4957 1068.43 49.7962 1062.44 43.9043C1056.46 38.0175 1047.64 35.2299 1036.31 35.2299C1025.6 35.2299 1015.12 38.9672 1004.9 46.2927C999.158 38.7672 989.319 35.2299 975.972 35.2299C965.787 35.2299 956.31 38.2757 947.574 44.3088V37V35.2299H945.804H931.5H929.73V37V102Z" fill="white" stroke="white" stroke-width="3.5402"/>
<rect x="772" y="10" width="26" height="20" fill="white"/>
<rect x="895" y="10" width="26" height="20" fill="white"/>
<rect x="772" y="37" width="26" height="67" fill="white"/>
<rect x="895" y="37" width="26" height="67" fill="white"/>
<path d="M828.265 59.265L828.187 59.1868C826.007 57.0068 826.333 53.3846 828.868 51.6297C829.931 50.8941 831.192 50.5 832.485 50.5H846.5H858.472C861.05 50.5 863.215 52.4381 863.5 55H888.5V54C888.5 44.0589 880.441 36 870.5 36H822C810.954 36 802 44.9543 802 56V59C802 68.9411 810.059 77 820 77H863.448C866.514 77 869 79.4856 869 82.5517C869 85.8369 866.337 88.5 863.052 88.5H833C829.134 88.5 826 85.366 826 81.5H801C801 93.6503 810.85 103.5 823 103.5H871.5C882.546 103.5 891.5 94.5457 891.5 83.5V78.228C891.5 68.9461 884.055 61.3799 874.774 61.2302L831.246 60.5282C830.126 60.5101 829.057 60.0571 828.265 59.265Z" fill="white"/>
<path d="M863.5 55V55C863.215 52.4381 861.05 50.5 858.472 50.5H846.5H832.485C831.192 50.5 829.931 50.8941 828.868 51.6297V51.6297C826.333 53.3846 826.007 57.0068 828.187 59.1868L828.265 59.265C829.057 60.0571 830.126 60.5101 831.246 60.5282L874.774 61.2302C884.055 61.3799 891.5 68.9461 891.5 78.228V83.5C891.5 94.5457 882.546 103.5 871.5 103.5H823C810.85 103.5 801 93.6503 801 81.5V81.5H826V81.5C826 85.366 829.134 88.5 833 88.5H863.052C866.337 88.5 869 85.8369 869 82.5517V82.5517C869 79.4856 866.514 77 863.448 77H820C810.059 77 802 68.9411 802 59V56C802 44.9543 810.954 36 822 36H870.5C880.441 36 888.5 44.0589 888.5 54V55H863" stroke="white"/>
</svg>
